#!OML:ASF H:\SpeedWalk\Project 1\Capture day 2\Session 1\male.ASF
:FULLY-SPECIFIED
:DEGREES
223
root -7.970172 20.878626 -0.609945 -0.791464 1.108683 8.464796
lowerback 5.924854 -1.554522 -9.046687 
upperback -1.364295 -2.759399 0.199219 
thorax -4.332730 -1.126734 5.545461 
lowerneck -12.457826 0.334830 1.724567 
upperneck 14.965429 0.634662 -3.039654 
head 6.625132 0.144742 -1.200571 
rclavicle 0.000000 0.000000 
rhumerus -35.183427 -15.596493 -75.691768 
rradius 32.676456 
rwrist -3.386988 
rhand -12.867348 -10.200097 
rfingers 0.000000 
rthumb 13.221102 -39.760847 
lclavicle 0.000000 0.000000 
lhumerus -40.717133 0.761228 87.663678 
lradius 41.774467 
lwrist -10.515806 
lhand -7.153654 15.452979 
lfingers 0.000000 
lthumb 18.723031 44.571981 
rfemur -39.249723 -4.924353 11.461604 
rtibia 32.780462 
rfoot 14.212519 -10.435596 
rtoes 2.750090 
lfemur 14.184289 -2.256489 -34.842719 
ltibia 25.659520 
lfoot -30.265226 7.574874 
ltoes -4.960468 
224
root -7.984719 20.806705 -0.447254 -0.810475 1.341721 8.450300
lowerback 5.641507 -1.655357 -9.054834 
upperback -1.434753 -2.867034 0.235027 
thorax -4.226878 -1.182568 5.585166 
lowerneck -12.384400 0.328889 1.730457 
upperneck 15.163610 0.642523 -3.109756 
head 6.676315 0.142501 -1.224396 
rclavicle 0.000000 0.000000 
rhumerus -35.668439 -15.620534 -75.361862 
rradius 32.802660 
rwrist -3.513657 
rhand -12.869061 -10.209821 
rfingers 0.000000 
rthumb 13.219465 -39.770684 
lclavicle 0.000000 0.000000 
lhumerus -40.904343 0.751922 87.723823 
lradius 41.727435 
lwrist -10.639425 
lhand -7.095018 15.372269 
lfingers 0.000000 
lthumb 18.779450 44.485797 
rfemur -38.636055 -4.476734 11.192866 
rtibia 31.848919 
rfoot 14.666347 -11.365929 
rtoes 3.268556 
lfemur 14.348572 -2.168770 -34.640384 
ltibia 26.719139 
lfoot -30.876900 7.267960 
ltoes -5.944145 
225
root -8.000032 20.733068 -0.284709 -0.837515 1.572354 8.430398
lowerback 5.365992 -1.749588 -9.067356 
upperback -1.505561 -2.966932 0.273416 
thorax -4.126604 -1.234165 5.629040 
lowerneck -12.313507 0.320952 1.731557 
upperneck 15.367912 0.647744 -3.173129 
head 6.729868 0.139184 -1.245608 
rclavicle 0.000000 0.000000 
rhumerus -36.167674 -15.655370 -75.022670 
rradius 32.937961 
rwrist -3.661080 
rhand -12.864582 -10.223176 
rfingers 0.000000 
rthumb 13.223726 -39.783792 
lclavicle 0.000000 0.000000 
lhumerus -41.093165 0.758686 87.780313 
lradius 41.676807 
lwrist -10.768073 
lhand -7.024461 15.293251 
lfingers 0.000000 
lthumb 18.847292 44.400155 
rfemur -38.021511 -4.063372 10.961620 
rtibia 31.039695 
rfoot 15.049858 -12.289565 
rtoes 3.842223 
lfemur 14.509958 -2.094601 -34.419360 
ltibia 27.804688 
lfoot -31.476688 6.921654 
ltoes -6.951803 
226
root -8.016074 20.657622 -0.122540 -0.872324 1.800898 8.411026
lowerback 5.098364 -1.837586 -9.089215 
upperback -1.573989 -3.059835 0.312547 
thorax -4.028817 -1.282024 5.678037 
lowerneck -12.252912 0.310841 1.723838 
upperneck 15.577944 0.650040 -3.225665 
head 6.786987 0.134707 -1.262257 
rclavicle 0.000000 0.000000 
rhumerus -36.674582 -15.698378 -74.677861 
rradius 33.080913 
rwrist -3.831483 
rhand -12.854805 -10.241949 
rfingers 0.000000 
rthumb 13.233172 -39.801911 
lclavicle 0.000000 0.000000 
lhumerus -41.273120 0.786050 87.830760 
lradius 41.614733 
lwrist -10.900109 
lhand -6.941310 15.221487 
lfingers 0.000000 
lthumb 18.927282 44.320584 
rfemur -37.407175 -3.700991 10.768745 
rtibia 30.343808 
rfoot 15.400821 -13.201431 
rtoes 4.487805 
lfemur 14.672721 -2.034332 -34.188525 
ltibia 28.905698 
lfoot -32.059824 6.541288 
ltoes -7.974494 
227
root -8.032915 20.580276 0.038897 -0.913105 2.023768 8.397008
lowerback 4.838740 -1.919648 -9.127955 
upperback -1.642718 -3.146728 0.351345 
thorax -3.935911 -1.326244 5.735440 
lowerneck -12.193780 0.300228 1.707005 
upperneck 15.788524 0.651224 -3.264720 
head 6.844489 0.130241 -1.273219 
rclavicle 0.000000 0.000000 
rhumerus -37.198039 -15.727238 -74.336957 
rradius 33.243755 
rwrist -4.043885 
rhand -12.847320 -10.275882 
rfingers 0.000000 
rthumb 13.240407 -39.835427 
lclavicle 0.000000 0.000000 
lhumerus -41.456504 0.831304 87.873425 
lradius 41.550445 
lwrist -11.024112 
lhand -6.849618 15.155618 
lfingers 0.000000 
lthumb 19.015440 44.246066 
rfemur -36.795976 -3.407934 10.619459 
rtibia 29.765295 
rfoot 15.756612 -14.096064 
rtoes 5.242950 
lfemur 14.836728 -1.982527 -33.952828 
ltibia 30.012243 
lfoot -32.619292 6.128161 
ltoes -9.022164 
228
root -8.050097 20.502047 0.198164 -0.953443 2.233778 8.392669
lowerback 4.581009 -1.995441 -9.182938 
upperback -1.709328 -3.226305 0.387652 
thorax -3.842220 -1.366599 5.798273 
lowerneck -12.144270 0.290401 1.683149 
upperneck 15.996220 0.653015 -3.293633 
head 6.902807 0.126400 -1.279729 
rclavicle 0.000000 0.000000 
rhumerus -37.715729 -15.764522 -73.998748 
rradius 33.400891 
rwrist -4.267096 
rhand -12.843052 -10.309628 
rfingers 0.000000 
rthumb 13.244504 -39.868840 
lclavicle 0.000000 0.000000 
lhumerus -41.629540 0.900048 87.904823 
lradius 41.475227 
lwrist -11.141504 
lhand -6.760794 15.102640 
lfingers 0.000000 
lthumb 19.100888 44.184741 
rfemur -36.197409 -3.200179 10.514885 
rtibia 29.294442 
rfoot 16.149827 -14.939477 
rtoes 6.112304 
lfemur 14.995644 -1.928138 -33.720182 
ltibia 31.107318 
lfoot -33.143516 5.689893 
ltoes -10.066774 
229
root -8.067260 20.423770 0.354217 -0.990003 2.432549 8.400060
lowerback 4.326077 -2.065929 -9.250995 
upperback -1.775637 -3.299808 0.419081 
thorax -3.750249 -1.403607 5.862577 
lowerneck -12.095173 0.280038 1.658773 
upperneck 16.191828 0.653581 -3.320414 
head 6.957343 0.122134 -1.285530 
rclavicle 0.000000 0.000000 
rhumerus -38.231645 -15.796553 -73.672404 
rradius 33.563645 
rwrist -4.503464 
rhand -12.840845 -10.339952 
rfingers 0.000000 
rthumb 13.246655 -39.899002 
lclavicle 0.000000 0.000000 
lhumerus -41.797142 0.981166 87.926964 
lradius 41.397067 
lwrist -11.248364 
lhand -6.674455 15.061271 
lfingers 0.000000 
lthumb 19.183893 44.135142 
rfemur -35.616401 -3.069374 10.442492 
rtibia 28.912025 
rfoot 16.584979 -15.710584 
rtoes 7.071595 
lfemur 15.149291 -1.868205 -33.495561 
ltibia 32.178089 
lfoot -33.633798 5.239314 
ltoes -11.108122 
230
root -8.084176 20.345943 0.506566 -1.021890 2.616770 8.419769
lowerback 4.073784 -2.130679 -9.330047 
upperback -1.841729 -3.366477 0.444781 
thorax -3.660311 -1.436938 5.926336 
lowerneck -12.046940 0.269332 1.635367 
upperneck 16.375518 0.653126 -3.346449 
head 7.008215 0.117515 -1.291297 
rclavicle 0.000000 0.000000 
rhumerus -38.740959 -15.829588 -73.356732 
rradius 33.724524 
rwrist -4.739919 
rhand -12.838463 -10.363953 
rfingers 0.000000 
rthumb 13.248959 -39.922849 
lclavicle 0.000000 0.000000 
lhumerus -41.959608 1.072393 87.939542 
lradius 41.316008 
lwrist -11.345425 
lhand -6.594847 15.027914 
lfingers 0.000000 
lthumb 19.260410 44.094144 
rfemur -35.055935 -3.006081 10.395696 
rtibia 28.608986 
rfoot 17.062358 -16.391014 
rtoes 8.100862 
lfemur 15.297633 -1.798928 -33.281727 
ltibia 33.217771 
lfoot -34.088729 4.782117 
ltoes -12.132072 
231
root -8.100710 20.268869 0.655076 -1.048942 2.784059 8.451524
lowerback 3.823770 -2.189457 -9.418235 
upperback -1.907469 -3.425811 0.464558 
thorax -3.572283 -1.466408 5.988331 
lowerneck -12.001018 0.258621 1.613378 
upperneck 16.549043 0.652088 -3.371992 
head 7.056229 0.112745 -1.297154 
rclavicle 0.000000 0.000000 
rhumerus -39.239379 -15.870538 -73.049169 
rradius 33.875893 
rwrist -4.965071 
rhand -12.834149 -10.379821 
rfingers 0.000000 
rthumb 13.253054 -39.938424 
lclavicle 0.000000 0.000000 
lhumerus -42.116827 1.172699 87.942467 
lradius 41.231256 
lwrist -11.434199 
lhand -6.525334 14.999322 
lfingers 0.000000 
lthumb 19.327246 44.058897 
rfemur -34.517077 -3.000384 10.369298 
rtibia 28.376522 
rfoot 17.579864 -16.971553 
rtoes 9.183046 
lfemur 15.440884 -1.717825 -33.079975 
ltibia 34.223458 
lfoot -34.508466 4.321890 
ltoes -13.127375 
